G75*
%MOIN*%
%OFA0B0*%
%FSLAX24Y24*%
%IPPOS*%
%LPD*%
%AMOC8*
5,1,8,0,0,1.08239X$1,22.5*
%
%ADD10C,0.0000*%
D10*
X000160Y001160D02*
X000160Y007160D01*
X000530Y007160D02*
X000532Y007210D01*
X000538Y007260D01*
X000548Y007309D01*
X000562Y007357D01*
X000579Y007404D01*
X000600Y007449D01*
X000625Y007493D01*
X000653Y007534D01*
X000685Y007573D01*
X000719Y007610D01*
X000756Y007644D01*
X000796Y007674D01*
X000838Y007701D01*
X000882Y007725D01*
X000928Y007746D01*
X000975Y007762D01*
X001023Y007775D01*
X001073Y007784D01*
X001122Y007789D01*
X001173Y007790D01*
X001223Y007787D01*
X001272Y007780D01*
X001321Y007769D01*
X001369Y007754D01*
X001415Y007736D01*
X001460Y007714D01*
X001503Y007688D01*
X001544Y007659D01*
X001583Y007627D01*
X001619Y007592D01*
X001651Y007554D01*
X001681Y007514D01*
X001708Y007471D01*
X001731Y007427D01*
X001750Y007381D01*
X001766Y007333D01*
X001778Y007284D01*
X001786Y007235D01*
X001790Y007185D01*
X001790Y007135D01*
X001786Y007085D01*
X001778Y007036D01*
X001766Y006987D01*
X001750Y006939D01*
X001731Y006893D01*
X001708Y006849D01*
X001681Y006806D01*
X001651Y006766D01*
X001619Y006728D01*
X001583Y006693D01*
X001544Y006661D01*
X001503Y006632D01*
X001460Y006606D01*
X001415Y006584D01*
X001369Y006566D01*
X001321Y006551D01*
X001272Y006540D01*
X001223Y006533D01*
X001173Y006530D01*
X001122Y006531D01*
X001073Y006536D01*
X001023Y006545D01*
X000975Y006558D01*
X000928Y006574D01*
X000882Y006595D01*
X000838Y006619D01*
X000796Y006646D01*
X000756Y006676D01*
X000719Y006710D01*
X000685Y006747D01*
X000653Y006786D01*
X000625Y006827D01*
X000600Y006871D01*
X000579Y006916D01*
X000562Y006963D01*
X000548Y007011D01*
X000538Y007060D01*
X000532Y007110D01*
X000530Y007160D01*
X000160Y007160D02*
X000162Y007220D01*
X000167Y007281D01*
X000176Y007340D01*
X000189Y007399D01*
X000205Y007458D01*
X000225Y007515D01*
X000248Y007570D01*
X000275Y007625D01*
X000304Y007677D01*
X000337Y007728D01*
X000373Y007777D01*
X000411Y007823D01*
X000453Y007867D01*
X000497Y007909D01*
X000543Y007947D01*
X000592Y007983D01*
X000643Y008016D01*
X000695Y008045D01*
X000750Y008072D01*
X000805Y008095D01*
X000862Y008115D01*
X000921Y008131D01*
X000980Y008144D01*
X001039Y008153D01*
X001100Y008158D01*
X001160Y008160D01*
X007160Y008160D01*
X006530Y007160D02*
X006532Y007210D01*
X006538Y007260D01*
X006548Y007309D01*
X006562Y007357D01*
X006579Y007404D01*
X006600Y007449D01*
X006625Y007493D01*
X006653Y007534D01*
X006685Y007573D01*
X006719Y007610D01*
X006756Y007644D01*
X006796Y007674D01*
X006838Y007701D01*
X006882Y007725D01*
X006928Y007746D01*
X006975Y007762D01*
X007023Y007775D01*
X007073Y007784D01*
X007122Y007789D01*
X007173Y007790D01*
X007223Y007787D01*
X007272Y007780D01*
X007321Y007769D01*
X007369Y007754D01*
X007415Y007736D01*
X007460Y007714D01*
X007503Y007688D01*
X007544Y007659D01*
X007583Y007627D01*
X007619Y007592D01*
X007651Y007554D01*
X007681Y007514D01*
X007708Y007471D01*
X007731Y007427D01*
X007750Y007381D01*
X007766Y007333D01*
X007778Y007284D01*
X007786Y007235D01*
X007790Y007185D01*
X007790Y007135D01*
X007786Y007085D01*
X007778Y007036D01*
X007766Y006987D01*
X007750Y006939D01*
X007731Y006893D01*
X007708Y006849D01*
X007681Y006806D01*
X007651Y006766D01*
X007619Y006728D01*
X007583Y006693D01*
X007544Y006661D01*
X007503Y006632D01*
X007460Y006606D01*
X007415Y006584D01*
X007369Y006566D01*
X007321Y006551D01*
X007272Y006540D01*
X007223Y006533D01*
X007173Y006530D01*
X007122Y006531D01*
X007073Y006536D01*
X007023Y006545D01*
X006975Y006558D01*
X006928Y006574D01*
X006882Y006595D01*
X006838Y006619D01*
X006796Y006646D01*
X006756Y006676D01*
X006719Y006710D01*
X006685Y006747D01*
X006653Y006786D01*
X006625Y006827D01*
X006600Y006871D01*
X006579Y006916D01*
X006562Y006963D01*
X006548Y007011D01*
X006538Y007060D01*
X006532Y007110D01*
X006530Y007160D01*
X007160Y008160D02*
X007220Y008158D01*
X007281Y008153D01*
X007340Y008144D01*
X007399Y008131D01*
X007458Y008115D01*
X007515Y008095D01*
X007570Y008072D01*
X007625Y008045D01*
X007677Y008016D01*
X007728Y007983D01*
X007777Y007947D01*
X007823Y007909D01*
X007867Y007867D01*
X007909Y007823D01*
X007947Y007777D01*
X007983Y007728D01*
X008016Y007677D01*
X008045Y007625D01*
X008072Y007570D01*
X008095Y007515D01*
X008115Y007458D01*
X008131Y007399D01*
X008144Y007340D01*
X008153Y007281D01*
X008158Y007220D01*
X008160Y007160D01*
X008160Y001160D01*
X006530Y001160D02*
X006532Y001210D01*
X006538Y001260D01*
X006548Y001309D01*
X006562Y001357D01*
X006579Y001404D01*
X006600Y001449D01*
X006625Y001493D01*
X006653Y001534D01*
X006685Y001573D01*
X006719Y001610D01*
X006756Y001644D01*
X006796Y001674D01*
X006838Y001701D01*
X006882Y001725D01*
X006928Y001746D01*
X006975Y001762D01*
X007023Y001775D01*
X007073Y001784D01*
X007122Y001789D01*
X007173Y001790D01*
X007223Y001787D01*
X007272Y001780D01*
X007321Y001769D01*
X007369Y001754D01*
X007415Y001736D01*
X007460Y001714D01*
X007503Y001688D01*
X007544Y001659D01*
X007583Y001627D01*
X007619Y001592D01*
X007651Y001554D01*
X007681Y001514D01*
X007708Y001471D01*
X007731Y001427D01*
X007750Y001381D01*
X007766Y001333D01*
X007778Y001284D01*
X007786Y001235D01*
X007790Y001185D01*
X007790Y001135D01*
X007786Y001085D01*
X007778Y001036D01*
X007766Y000987D01*
X007750Y000939D01*
X007731Y000893D01*
X007708Y000849D01*
X007681Y000806D01*
X007651Y000766D01*
X007619Y000728D01*
X007583Y000693D01*
X007544Y000661D01*
X007503Y000632D01*
X007460Y000606D01*
X007415Y000584D01*
X007369Y000566D01*
X007321Y000551D01*
X007272Y000540D01*
X007223Y000533D01*
X007173Y000530D01*
X007122Y000531D01*
X007073Y000536D01*
X007023Y000545D01*
X006975Y000558D01*
X006928Y000574D01*
X006882Y000595D01*
X006838Y000619D01*
X006796Y000646D01*
X006756Y000676D01*
X006719Y000710D01*
X006685Y000747D01*
X006653Y000786D01*
X006625Y000827D01*
X006600Y000871D01*
X006579Y000916D01*
X006562Y000963D01*
X006548Y001011D01*
X006538Y001060D01*
X006532Y001110D01*
X006530Y001160D01*
X007160Y000160D02*
X007220Y000162D01*
X007281Y000167D01*
X007340Y000176D01*
X007399Y000189D01*
X007458Y000205D01*
X007515Y000225D01*
X007570Y000248D01*
X007625Y000275D01*
X007677Y000304D01*
X007728Y000337D01*
X007777Y000373D01*
X007823Y000411D01*
X007867Y000453D01*
X007909Y000497D01*
X007947Y000543D01*
X007983Y000592D01*
X008016Y000643D01*
X008045Y000695D01*
X008072Y000750D01*
X008095Y000805D01*
X008115Y000862D01*
X008131Y000921D01*
X008144Y000980D01*
X008153Y001039D01*
X008158Y001100D01*
X008160Y001160D01*
X007160Y000160D02*
X001160Y000160D01*
X000530Y001160D02*
X000532Y001210D01*
X000538Y001260D01*
X000548Y001309D01*
X000562Y001357D01*
X000579Y001404D01*
X000600Y001449D01*
X000625Y001493D01*
X000653Y001534D01*
X000685Y001573D01*
X000719Y001610D01*
X000756Y001644D01*
X000796Y001674D01*
X000838Y001701D01*
X000882Y001725D01*
X000928Y001746D01*
X000975Y001762D01*
X001023Y001775D01*
X001073Y001784D01*
X001122Y001789D01*
X001173Y001790D01*
X001223Y001787D01*
X001272Y001780D01*
X001321Y001769D01*
X001369Y001754D01*
X001415Y001736D01*
X001460Y001714D01*
X001503Y001688D01*
X001544Y001659D01*
X001583Y001627D01*
X001619Y001592D01*
X001651Y001554D01*
X001681Y001514D01*
X001708Y001471D01*
X001731Y001427D01*
X001750Y001381D01*
X001766Y001333D01*
X001778Y001284D01*
X001786Y001235D01*
X001790Y001185D01*
X001790Y001135D01*
X001786Y001085D01*
X001778Y001036D01*
X001766Y000987D01*
X001750Y000939D01*
X001731Y000893D01*
X001708Y000849D01*
X001681Y000806D01*
X001651Y000766D01*
X001619Y000728D01*
X001583Y000693D01*
X001544Y000661D01*
X001503Y000632D01*
X001460Y000606D01*
X001415Y000584D01*
X001369Y000566D01*
X001321Y000551D01*
X001272Y000540D01*
X001223Y000533D01*
X001173Y000530D01*
X001122Y000531D01*
X001073Y000536D01*
X001023Y000545D01*
X000975Y000558D01*
X000928Y000574D01*
X000882Y000595D01*
X000838Y000619D01*
X000796Y000646D01*
X000756Y000676D01*
X000719Y000710D01*
X000685Y000747D01*
X000653Y000786D01*
X000625Y000827D01*
X000600Y000871D01*
X000579Y000916D01*
X000562Y000963D01*
X000548Y001011D01*
X000538Y001060D01*
X000532Y001110D01*
X000530Y001160D01*
X000160Y001160D02*
X000162Y001100D01*
X000167Y001039D01*
X000176Y000980D01*
X000189Y000921D01*
X000205Y000862D01*
X000225Y000805D01*
X000248Y000750D01*
X000275Y000695D01*
X000304Y000643D01*
X000337Y000592D01*
X000373Y000543D01*
X000411Y000497D01*
X000453Y000453D01*
X000497Y000411D01*
X000543Y000373D01*
X000592Y000337D01*
X000643Y000304D01*
X000695Y000275D01*
X000750Y000248D01*
X000805Y000225D01*
X000862Y000205D01*
X000921Y000189D01*
X000980Y000176D01*
X001039Y000167D01*
X001100Y000162D01*
X001160Y000160D01*
M02*
