G75*
%MOIN*%
%OFA0B0*%
%FSLAX24Y24*%
%IPPOS*%
%LPD*%
%AMOC8*
5,1,8,0,0,1.08239X$1,22.5*
%
%ADD10C,0.0792*%
%ADD11R,0.0720X0.0720*%
%ADD12OC8,0.0720*%
%ADD13C,0.0720*%
%ADD14C,0.0320*%
%ADD15C,0.0400*%
%ADD16C,0.0120*%
%ADD17C,0.0270*%
D10*
X002160Y005860D03*
X006160Y005860D03*
D11*
X003660Y007160D03*
X003160Y001160D03*
X004160Y001160D03*
X005160Y001160D03*
D12*
X005160Y002160D03*
X004160Y002160D03*
X003160Y002160D03*
X004660Y007160D03*
D13*
X004160Y004448D02*
X004160Y003872D01*
X005160Y003872D02*
X005160Y004448D01*
X003160Y004448D02*
X003160Y003872D01*
D14*
X004160Y004160D02*
X004160Y003360D01*
X003160Y002360D01*
X003160Y002160D01*
X004160Y004160D02*
X004160Y005060D01*
X003360Y005860D01*
X002160Y005860D01*
X006160Y005860D02*
X006160Y001760D01*
X005560Y001160D01*
X005160Y001160D01*
D15*
X004160Y001160D01*
X003160Y001160D01*
D16*
X000566Y000566D02*
X000412Y000779D01*
X000330Y001029D01*
X000320Y001160D01*
X000320Y007160D01*
X000330Y007291D01*
X000412Y007541D01*
X000566Y007754D01*
X000779Y007908D01*
X001029Y007990D01*
X001160Y008000D01*
X007160Y008000D01*
X007291Y007990D01*
X007541Y007908D01*
X007754Y007754D01*
X007908Y007541D01*
X007990Y007291D01*
X008000Y007160D01*
X008000Y001160D01*
X007990Y001029D01*
X007908Y000779D01*
X007754Y000566D01*
X007541Y000412D01*
X007291Y000330D01*
X007160Y000320D01*
X001160Y000320D01*
X001029Y000330D01*
X000779Y000412D01*
X000566Y000566D01*
X000569Y000634D02*
X000517Y000634D01*
X000490Y000713D02*
X000713Y000490D01*
X001003Y000370D01*
X001317Y000370D01*
X001607Y000490D01*
X001830Y000713D01*
X001950Y001003D01*
X001950Y001317D01*
X001830Y001607D01*
X001607Y001830D01*
X001317Y001950D01*
X001003Y001950D01*
X000713Y001830D01*
X000490Y001607D01*
X000370Y001317D01*
X000370Y001003D01*
X000490Y000713D01*
X000474Y000753D02*
X000431Y000753D01*
X000425Y000871D02*
X000382Y000871D01*
X000376Y000990D02*
X000343Y000990D01*
X000324Y001108D02*
X000370Y001108D01*
X000370Y001227D02*
X000320Y001227D01*
X000320Y001345D02*
X000382Y001345D01*
X000431Y001464D02*
X000320Y001464D01*
X000320Y001582D02*
X000480Y001582D01*
X000583Y001701D02*
X000320Y001701D01*
X000320Y001819D02*
X000702Y001819D01*
X000973Y001938D02*
X000320Y001938D01*
X000320Y002056D02*
X002640Y002056D01*
X002640Y001945D02*
X002905Y001680D01*
X002734Y001680D01*
X002640Y001586D01*
X002640Y000734D01*
X002734Y000640D01*
X003586Y000640D01*
X003660Y000714D01*
X003734Y000640D01*
X004586Y000640D01*
X004660Y000714D01*
X004734Y000640D01*
X005586Y000640D01*
X005680Y000734D01*
X005680Y000863D01*
X005741Y000889D01*
X006341Y001489D01*
X006431Y001579D01*
X006480Y001696D01*
X006480Y005394D01*
X006631Y005545D01*
X006716Y005749D01*
X006716Y005971D01*
X006631Y006175D01*
X006475Y006331D01*
X006271Y006416D01*
X006049Y006416D01*
X005845Y006331D01*
X005689Y006175D01*
X005604Y005971D01*
X005604Y005749D01*
X005689Y005545D01*
X005840Y005394D01*
X005840Y001893D01*
X005607Y001659D01*
X005586Y001680D01*
X005415Y001680D01*
X005680Y001945D01*
X005680Y002120D01*
X005200Y002120D01*
X005200Y002200D01*
X005120Y002200D01*
X005120Y002680D01*
X004945Y002680D01*
X004660Y002395D01*
X004375Y002680D01*
X004200Y002680D01*
X004200Y002200D01*
X004120Y002200D01*
X004120Y002680D01*
X003945Y002680D01*
X003660Y002395D01*
X003654Y002401D01*
X004341Y003089D01*
X004431Y003179D01*
X004480Y003296D01*
X004480Y003457D01*
X004601Y003577D01*
X004661Y003724D01*
X004678Y003672D01*
X004715Y003599D01*
X004763Y003533D01*
X004821Y003475D01*
X004887Y003427D01*
X004960Y003390D01*
X005038Y003365D01*
X005119Y003352D01*
X005120Y003352D01*
X005120Y004120D01*
X005200Y004120D01*
X005200Y004200D01*
X005120Y004200D01*
X005120Y004968D01*
X005119Y004968D01*
X005038Y004955D01*
X004960Y004930D01*
X004887Y004893D01*
X004821Y004845D01*
X004763Y004787D01*
X004715Y004721D01*
X004678Y004648D01*
X004661Y004596D01*
X004601Y004743D01*
X004480Y004863D01*
X004480Y005124D01*
X004431Y005241D01*
X004341Y005331D01*
X003541Y006131D01*
X003424Y006180D01*
X002626Y006180D01*
X002475Y006331D01*
X002271Y006416D01*
X002049Y006416D01*
X001845Y006331D01*
X001689Y006175D01*
X001604Y005971D01*
X001604Y005749D01*
X001689Y005545D01*
X001845Y005389D01*
X002049Y005304D01*
X002271Y005304D01*
X002475Y005389D01*
X002626Y005540D01*
X003227Y005540D01*
X003840Y004927D01*
X003840Y004863D01*
X003719Y004743D01*
X003660Y004600D01*
X003601Y004743D01*
X003455Y004889D01*
X003263Y004968D01*
X003057Y004968D01*
X002865Y004889D01*
X002719Y004743D01*
X002640Y004551D01*
X002640Y003769D01*
X002719Y003577D01*
X002865Y003431D01*
X003057Y003352D01*
X003263Y003352D01*
X003455Y003431D01*
X003601Y003577D01*
X003660Y003720D01*
X003719Y003577D01*
X003822Y003475D01*
X003027Y002680D01*
X002945Y002680D01*
X002640Y002375D01*
X002640Y001945D01*
X002647Y001938D02*
X001347Y001938D01*
X001618Y001819D02*
X002766Y001819D01*
X002884Y001701D02*
X001737Y001701D01*
X001840Y001582D02*
X002640Y001582D01*
X002640Y001464D02*
X001889Y001464D01*
X001938Y001345D02*
X002640Y001345D01*
X002640Y001227D02*
X001950Y001227D01*
X001950Y001108D02*
X002640Y001108D01*
X002640Y000990D02*
X001944Y000990D01*
X001895Y000871D02*
X002640Y000871D01*
X002640Y000753D02*
X001846Y000753D01*
X001751Y000634D02*
X006569Y000634D01*
X006490Y000713D02*
X006713Y000490D01*
X007003Y000370D01*
X007317Y000370D01*
X007607Y000490D01*
X007830Y000713D01*
X007950Y001003D01*
X007950Y001317D01*
X007830Y001607D01*
X007607Y001830D01*
X007317Y001950D01*
X007003Y001950D01*
X006713Y001830D01*
X006490Y001607D01*
X006370Y001317D01*
X006370Y001003D01*
X006490Y000713D01*
X006474Y000753D02*
X005680Y000753D01*
X005698Y000871D02*
X006425Y000871D01*
X006376Y000990D02*
X005842Y000990D01*
X005961Y001108D02*
X006370Y001108D01*
X006370Y001227D02*
X006079Y001227D01*
X006198Y001345D02*
X006382Y001345D01*
X006431Y001464D02*
X006316Y001464D01*
X006433Y001582D02*
X006480Y001582D01*
X006480Y001701D02*
X006583Y001701D01*
X006480Y001819D02*
X006702Y001819D01*
X006480Y001938D02*
X006973Y001938D01*
X007347Y001938D02*
X008000Y001938D01*
X008000Y002056D02*
X006480Y002056D01*
X006480Y002175D02*
X008000Y002175D01*
X008000Y002293D02*
X006480Y002293D01*
X006480Y002412D02*
X008000Y002412D01*
X008000Y002530D02*
X006480Y002530D01*
X006480Y002649D02*
X008000Y002649D01*
X008000Y002767D02*
X006480Y002767D01*
X006480Y002886D02*
X008000Y002886D01*
X008000Y003004D02*
X006480Y003004D01*
X006480Y003123D02*
X008000Y003123D01*
X008000Y003241D02*
X006480Y003241D01*
X006480Y003360D02*
X008000Y003360D01*
X008000Y003478D02*
X006480Y003478D01*
X006480Y003597D02*
X008000Y003597D01*
X008000Y003715D02*
X006480Y003715D01*
X006480Y003834D02*
X008000Y003834D01*
X008000Y003952D02*
X006480Y003952D01*
X006480Y004071D02*
X008000Y004071D01*
X008000Y004189D02*
X006480Y004189D01*
X006480Y004308D02*
X008000Y004308D01*
X008000Y004426D02*
X006480Y004426D01*
X006480Y004545D02*
X008000Y004545D01*
X008000Y004663D02*
X006480Y004663D01*
X006480Y004782D02*
X008000Y004782D01*
X008000Y004900D02*
X006480Y004900D01*
X006480Y005019D02*
X008000Y005019D01*
X008000Y005137D02*
X006480Y005137D01*
X006480Y005256D02*
X008000Y005256D01*
X008000Y005374D02*
X006480Y005374D01*
X006579Y005493D02*
X008000Y005493D01*
X008000Y005611D02*
X006659Y005611D01*
X006708Y005730D02*
X008000Y005730D01*
X008000Y005848D02*
X006716Y005848D01*
X006716Y005967D02*
X008000Y005967D01*
X008000Y006085D02*
X006669Y006085D01*
X006603Y006204D02*
X008000Y006204D01*
X008000Y006322D02*
X006484Y006322D01*
X006713Y006490D02*
X007003Y006370D01*
X007317Y006370D01*
X007607Y006490D01*
X007830Y006713D01*
X007950Y007003D01*
X007950Y007317D01*
X007830Y007607D01*
X007607Y007830D01*
X007317Y007950D01*
X007003Y007950D01*
X006713Y007830D01*
X006490Y007607D01*
X006370Y007317D01*
X006370Y007003D01*
X006490Y006713D01*
X006713Y006490D01*
X006644Y006559D02*
X001676Y006559D01*
X001607Y006490D02*
X001830Y006713D01*
X001950Y007003D01*
X001950Y007317D01*
X001830Y007607D01*
X001607Y007830D01*
X001317Y007950D01*
X001003Y007950D01*
X000713Y007830D01*
X000490Y007607D01*
X000370Y007317D01*
X000370Y007003D01*
X000490Y006713D01*
X000713Y006490D01*
X001003Y006370D01*
X001317Y006370D01*
X001607Y006490D01*
X001487Y006441D02*
X006833Y006441D01*
X006525Y006678D02*
X004913Y006678D01*
X004875Y006640D02*
X005180Y006945D01*
X005180Y007120D01*
X004700Y007120D01*
X004700Y007200D01*
X005180Y007200D01*
X005180Y007375D01*
X004875Y007680D01*
X004700Y007680D01*
X004700Y007200D01*
X004620Y007200D01*
X004620Y007680D01*
X004445Y007680D01*
X004180Y007415D01*
X004180Y007586D01*
X004086Y007680D01*
X003234Y007680D01*
X003140Y007586D01*
X003140Y006734D01*
X003234Y006640D01*
X004086Y006640D01*
X004180Y006734D01*
X004180Y006905D01*
X004445Y006640D01*
X004620Y006640D01*
X004620Y007120D01*
X004700Y007120D01*
X004700Y006640D01*
X004875Y006640D01*
X004700Y006678D02*
X004620Y006678D01*
X004620Y006796D02*
X004700Y006796D01*
X004700Y006915D02*
X004620Y006915D01*
X004620Y007033D02*
X004700Y007033D01*
X004700Y007152D02*
X006370Y007152D01*
X006370Y007033D02*
X005180Y007033D01*
X005150Y006915D02*
X006407Y006915D01*
X006456Y006796D02*
X005031Y006796D01*
X005180Y007270D02*
X006370Y007270D01*
X006400Y007389D02*
X005167Y007389D01*
X005048Y007507D02*
X006449Y007507D01*
X006508Y007626D02*
X004930Y007626D01*
X004700Y007626D02*
X004620Y007626D01*
X004620Y007507D02*
X004700Y007507D01*
X004700Y007389D02*
X004620Y007389D01*
X004620Y007270D02*
X004700Y007270D01*
X004390Y007626D02*
X004141Y007626D01*
X004180Y007507D02*
X004272Y007507D01*
X004289Y006796D02*
X004180Y006796D01*
X004124Y006678D02*
X004407Y006678D01*
X003706Y005967D02*
X005604Y005967D01*
X005604Y005848D02*
X003825Y005848D01*
X003943Y005730D02*
X005612Y005730D01*
X005661Y005611D02*
X004062Y005611D01*
X004180Y005493D02*
X005741Y005493D01*
X005840Y005374D02*
X004299Y005374D01*
X004417Y005256D02*
X005840Y005256D01*
X005840Y005137D02*
X004474Y005137D01*
X004480Y005019D02*
X005840Y005019D01*
X005840Y004900D02*
X005418Y004900D01*
X005433Y004893D02*
X005360Y004930D01*
X005282Y004955D01*
X005201Y004968D01*
X005200Y004968D01*
X005200Y004200D01*
X005680Y004200D01*
X005680Y004489D01*
X005667Y004570D01*
X005642Y004648D01*
X005605Y004721D01*
X005557Y004787D01*
X005499Y004845D01*
X005433Y004893D01*
X005560Y004782D02*
X005840Y004782D01*
X005840Y004663D02*
X005634Y004663D01*
X005671Y004545D02*
X005840Y004545D01*
X005840Y004426D02*
X005680Y004426D01*
X005680Y004308D02*
X005840Y004308D01*
X005840Y004189D02*
X005200Y004189D01*
X005200Y004120D02*
X005680Y004120D01*
X005680Y003831D01*
X005667Y003750D01*
X005642Y003672D01*
X005605Y003599D01*
X005557Y003533D01*
X005499Y003475D01*
X005433Y003427D01*
X005360Y003390D01*
X005282Y003365D01*
X005201Y003352D01*
X005200Y003352D01*
X005200Y004120D01*
X005200Y004071D02*
X005120Y004071D01*
X005120Y003952D02*
X005200Y003952D01*
X005200Y003834D02*
X005120Y003834D01*
X005120Y003715D02*
X005200Y003715D01*
X005200Y003597D02*
X005120Y003597D01*
X005120Y003478D02*
X005200Y003478D01*
X005200Y003360D02*
X005120Y003360D01*
X005072Y003360D02*
X004480Y003360D01*
X004501Y003478D02*
X004819Y003478D01*
X004717Y003597D02*
X004609Y003597D01*
X004658Y003715D02*
X004664Y003715D01*
X004457Y003241D02*
X005840Y003241D01*
X005840Y003123D02*
X004375Y003123D01*
X004341Y003089D02*
X004341Y003089D01*
X004257Y003004D02*
X005840Y003004D01*
X005840Y002886D02*
X004138Y002886D01*
X004020Y002767D02*
X005840Y002767D01*
X005840Y002649D02*
X005407Y002649D01*
X005375Y002680D02*
X005200Y002680D01*
X005200Y002200D01*
X005680Y002200D01*
X005680Y002375D01*
X005375Y002680D01*
X005200Y002649D02*
X005120Y002649D01*
X005120Y002530D02*
X005200Y002530D01*
X005200Y002412D02*
X005120Y002412D01*
X005120Y002293D02*
X005200Y002293D01*
X005200Y002175D02*
X005840Y002175D01*
X005840Y002293D02*
X005680Y002293D01*
X005644Y002412D02*
X005840Y002412D01*
X005840Y002530D02*
X005525Y002530D01*
X005120Y002200D02*
X005120Y002120D01*
X004200Y002120D01*
X004200Y002200D01*
X004680Y002200D01*
X005120Y002200D01*
X005120Y002175D02*
X004200Y002175D01*
X004200Y002293D02*
X004120Y002293D01*
X004120Y002412D02*
X004200Y002412D01*
X004200Y002530D02*
X004120Y002530D01*
X004120Y002649D02*
X004200Y002649D01*
X004407Y002649D02*
X004913Y002649D01*
X004795Y002530D02*
X004525Y002530D01*
X004644Y002412D02*
X004676Y002412D01*
X003913Y002649D02*
X003901Y002649D01*
X003795Y002530D02*
X003783Y002530D01*
X003676Y002412D02*
X003664Y002412D01*
X003233Y002886D02*
X000320Y002886D01*
X000320Y002767D02*
X003114Y002767D01*
X002913Y002649D02*
X000320Y002649D01*
X000320Y002530D02*
X002795Y002530D01*
X002676Y002412D02*
X000320Y002412D01*
X000320Y002293D02*
X002640Y002293D01*
X002640Y002175D02*
X000320Y002175D01*
X000320Y003004D02*
X003351Y003004D01*
X003470Y003123D02*
X000320Y003123D01*
X000320Y003241D02*
X003588Y003241D01*
X003707Y003360D02*
X003282Y003360D01*
X003038Y003360D02*
X000320Y003360D01*
X000320Y003478D02*
X002819Y003478D01*
X002711Y003597D02*
X000320Y003597D01*
X000320Y003715D02*
X002662Y003715D01*
X002640Y003834D02*
X000320Y003834D01*
X000320Y003952D02*
X002640Y003952D01*
X002640Y004071D02*
X000320Y004071D01*
X000320Y004189D02*
X002640Y004189D01*
X002640Y004308D02*
X000320Y004308D01*
X000320Y004426D02*
X002640Y004426D01*
X002640Y004545D02*
X000320Y004545D01*
X000320Y004663D02*
X002686Y004663D01*
X002758Y004782D02*
X000320Y004782D01*
X000320Y004900D02*
X002892Y004900D01*
X002440Y005374D02*
X003393Y005374D01*
X003275Y005493D02*
X002579Y005493D01*
X001880Y005374D02*
X000320Y005374D01*
X000320Y005256D02*
X003512Y005256D01*
X003630Y005137D02*
X000320Y005137D01*
X000320Y005019D02*
X003749Y005019D01*
X003840Y004900D02*
X003428Y004900D01*
X003562Y004782D02*
X003758Y004782D01*
X003686Y004663D02*
X003634Y004663D01*
X004480Y004900D02*
X004902Y004900D01*
X004760Y004782D02*
X004562Y004782D01*
X004634Y004663D02*
X004686Y004663D01*
X005120Y004663D02*
X005200Y004663D01*
X005200Y004782D02*
X005120Y004782D01*
X005120Y004900D02*
X005200Y004900D01*
X005200Y004545D02*
X005120Y004545D01*
X005120Y004426D02*
X005200Y004426D01*
X005200Y004308D02*
X005120Y004308D01*
X005680Y004071D02*
X005840Y004071D01*
X005840Y003952D02*
X005680Y003952D01*
X005680Y003834D02*
X005840Y003834D01*
X005840Y003715D02*
X005656Y003715D01*
X005603Y003597D02*
X005840Y003597D01*
X005840Y003478D02*
X005501Y003478D01*
X005248Y003360D02*
X005840Y003360D01*
X005840Y002056D02*
X005680Y002056D01*
X005673Y001938D02*
X005840Y001938D01*
X005766Y001819D02*
X005554Y001819D01*
X005648Y001701D02*
X005436Y001701D01*
X006687Y000516D02*
X001633Y000516D01*
X001382Y000397D02*
X006938Y000397D01*
X007382Y000397D02*
X007497Y000397D01*
X007633Y000516D02*
X007684Y000516D01*
X007751Y000634D02*
X007803Y000634D01*
X007846Y000753D02*
X007889Y000753D01*
X007895Y000871D02*
X007938Y000871D01*
X007944Y000990D02*
X007977Y000990D01*
X007996Y001108D02*
X007950Y001108D01*
X007950Y001227D02*
X008000Y001227D01*
X008000Y001345D02*
X007938Y001345D01*
X007889Y001464D02*
X008000Y001464D01*
X008000Y001582D02*
X007840Y001582D01*
X007737Y001701D02*
X008000Y001701D01*
X008000Y001819D02*
X007618Y001819D01*
X003819Y003478D02*
X003501Y003478D01*
X003609Y003597D02*
X003711Y003597D01*
X003662Y003715D02*
X003658Y003715D01*
X001741Y005493D02*
X000320Y005493D01*
X000320Y005611D02*
X001661Y005611D01*
X001612Y005730D02*
X000320Y005730D01*
X000320Y005848D02*
X001604Y005848D01*
X001604Y005967D02*
X000320Y005967D01*
X000320Y006085D02*
X001651Y006085D01*
X001717Y006204D02*
X000320Y006204D01*
X000320Y006322D02*
X001836Y006322D01*
X001795Y006678D02*
X003196Y006678D01*
X003140Y006796D02*
X001864Y006796D01*
X001913Y006915D02*
X003140Y006915D01*
X003140Y007033D02*
X001950Y007033D01*
X001950Y007152D02*
X003140Y007152D01*
X003140Y007270D02*
X001950Y007270D01*
X001920Y007389D02*
X003140Y007389D01*
X003140Y007507D02*
X001871Y007507D01*
X001812Y007626D02*
X003179Y007626D01*
X002484Y006322D02*
X005836Y006322D01*
X005717Y006204D02*
X002603Y006204D01*
X003588Y006085D02*
X005651Y006085D01*
X006627Y007744D02*
X001693Y007744D01*
X001528Y007863D02*
X006792Y007863D01*
X007318Y007981D02*
X001002Y007981D01*
X000792Y007863D02*
X000715Y007863D01*
X000627Y007744D02*
X000559Y007744D01*
X000508Y007626D02*
X000473Y007626D01*
X000449Y007507D02*
X000400Y007507D01*
X000400Y007389D02*
X000362Y007389D01*
X000370Y007270D02*
X000329Y007270D01*
X000320Y007152D02*
X000370Y007152D01*
X000370Y007033D02*
X000320Y007033D01*
X000320Y006915D02*
X000407Y006915D01*
X000456Y006796D02*
X000320Y006796D01*
X000320Y006678D02*
X000525Y006678D01*
X000644Y006559D02*
X000320Y006559D01*
X000320Y006441D02*
X000833Y006441D01*
X000687Y000516D02*
X000636Y000516D01*
X000823Y000397D02*
X000938Y000397D01*
X007487Y006441D02*
X008000Y006441D01*
X008000Y006559D02*
X007676Y006559D01*
X007795Y006678D02*
X008000Y006678D01*
X008000Y006796D02*
X007864Y006796D01*
X007913Y006915D02*
X008000Y006915D01*
X008000Y007033D02*
X007950Y007033D01*
X007950Y007152D02*
X008000Y007152D01*
X007991Y007270D02*
X007950Y007270D01*
X007958Y007389D02*
X007920Y007389D01*
X007920Y007507D02*
X007871Y007507D01*
X007847Y007626D02*
X007812Y007626D01*
X007761Y007744D02*
X007693Y007744D01*
X007605Y007863D02*
X007528Y007863D01*
D17*
X001560Y005160D03*
M02*
