G75*
%MOIN*%
%OFA0B0*%
%FSLAX24Y24*%
%IPPOS*%
%LPD*%
%AMOC8*
5,1,8,0,0,1.08239X$1,22.5*
%
%ADD10C,0.0080*%
%ADD11R,0.0200X0.1000*%
%ADD12R,0.0750X0.0300*%
%ADD13R,0.0128X0.0167*%
%ADD14R,0.0138X0.0138*%
%ADD15R,0.4200X0.0300*%
%ADD16R,0.0750X0.0200*%
%ADD17R,0.0300X0.0200*%
D10*
X002660Y000910D02*
X002910Y000660D01*
X003410Y000660D01*
X003660Y000910D01*
X003910Y000660D01*
X004410Y000660D01*
X004660Y000910D01*
X004660Y001410D01*
X004410Y001660D01*
X004660Y001910D01*
X004660Y002410D01*
X004410Y002660D01*
X003910Y002660D01*
X003660Y002410D01*
X003660Y001910D01*
X003910Y001660D01*
X004410Y001660D01*
X004660Y001410D02*
X004910Y001660D01*
X004660Y001910D01*
X004910Y001660D02*
X005410Y001660D01*
X005660Y001910D01*
X005660Y002410D01*
X005410Y002660D01*
X004910Y002660D01*
X004660Y002410D01*
X004597Y002850D02*
X004490Y002850D01*
X004437Y002903D01*
X004437Y003117D01*
X004490Y003170D01*
X004597Y003170D01*
X004650Y003117D01*
X004650Y003010D02*
X004543Y003010D01*
X004650Y003010D02*
X004650Y002903D01*
X004597Y002850D01*
X004282Y002850D02*
X004068Y002850D01*
X004068Y003170D01*
X004282Y003170D01*
X004175Y003010D02*
X004068Y003010D01*
X003914Y003010D02*
X003914Y003117D01*
X003860Y003170D01*
X003700Y003170D01*
X003700Y002850D01*
X003700Y002957D02*
X003860Y002957D01*
X003914Y003010D01*
X003807Y002957D02*
X003914Y002850D01*
X003660Y002410D02*
X003410Y002660D01*
X002910Y002660D01*
X002660Y002410D01*
X002660Y001910D01*
X002910Y001660D01*
X003410Y001660D01*
X003660Y001910D01*
X003410Y001660D02*
X003660Y001410D01*
X003910Y001660D01*
X003660Y001410D02*
X003660Y000910D01*
X002910Y001660D02*
X002660Y001410D01*
X002660Y000910D01*
X002614Y002850D02*
X002614Y003170D01*
X002507Y003064D01*
X002400Y003170D01*
X002400Y002850D01*
X002768Y002903D02*
X002822Y002850D01*
X002928Y002850D01*
X002982Y002903D01*
X002982Y003117D01*
X002928Y003170D01*
X002822Y003170D01*
X002768Y003117D01*
X002768Y002903D01*
X003137Y003170D02*
X003350Y003170D01*
X003243Y003170D02*
X003243Y002850D01*
X002290Y003700D02*
X002292Y003720D01*
X002298Y003738D01*
X002307Y003756D01*
X002319Y003771D01*
X002334Y003783D01*
X002352Y003792D01*
X002370Y003798D01*
X002390Y003800D01*
X002410Y003798D01*
X002428Y003792D01*
X002446Y003783D01*
X002461Y003771D01*
X002473Y003756D01*
X002482Y003738D01*
X002488Y003720D01*
X002490Y003700D01*
X002488Y003680D01*
X002482Y003662D01*
X002473Y003644D01*
X002461Y003629D01*
X002446Y003617D01*
X002428Y003608D01*
X002410Y003602D01*
X002390Y003600D01*
X002370Y003602D01*
X002352Y003608D01*
X002334Y003617D01*
X002319Y003629D01*
X002307Y003644D01*
X002298Y003662D01*
X002292Y003680D01*
X002290Y003700D01*
X002210Y003560D02*
X002160Y004710D01*
X002210Y003560D02*
X002310Y003460D01*
X006010Y003460D01*
X006110Y003560D01*
X006160Y004710D01*
X006803Y003700D02*
X006856Y003700D01*
X006910Y003647D01*
X006963Y003700D01*
X007017Y003700D01*
X007070Y003647D01*
X007070Y003540D01*
X007017Y003487D01*
X007070Y003332D02*
X006910Y003172D01*
X006963Y003118D02*
X006750Y003332D01*
X006803Y003487D02*
X006750Y003540D01*
X006750Y003647D01*
X006803Y003700D01*
X006910Y003647D02*
X006910Y003593D01*
X006750Y003118D02*
X007070Y003118D01*
X007017Y002964D02*
X006963Y002964D01*
X006910Y002910D01*
X006910Y002857D01*
X006910Y002910D02*
X006856Y002964D01*
X006803Y002964D01*
X006750Y002910D01*
X006750Y002803D01*
X006803Y002750D01*
X007017Y002750D02*
X007070Y002803D01*
X007070Y002910D01*
X007017Y002964D01*
X006314Y002210D02*
X005900Y002210D01*
X005410Y001660D02*
X005660Y001410D01*
X005660Y000910D01*
X005410Y000660D01*
X004910Y000660D01*
X004660Y000910D01*
X005900Y001210D02*
X006314Y001210D01*
X006107Y001417D02*
X006107Y001003D01*
X005943Y002850D02*
X005943Y003170D01*
X005837Y003170D02*
X006050Y003170D01*
X005682Y003064D02*
X005682Y002850D01*
X005682Y003010D02*
X005468Y003010D01*
X005468Y003064D02*
X005575Y003170D01*
X005682Y003064D01*
X005468Y003064D02*
X005468Y002850D01*
X005314Y002903D02*
X005260Y002850D01*
X005100Y002850D01*
X005100Y003170D01*
X005260Y003170D01*
X005314Y003117D01*
X005314Y003064D01*
X005260Y003010D01*
X005100Y003010D01*
X005260Y003010D02*
X005314Y002957D01*
X005314Y002903D01*
X004960Y005360D02*
X003360Y005360D01*
X003360Y006360D01*
X004960Y006360D01*
X004960Y005360D01*
X004410Y005860D02*
X004160Y005860D01*
X004160Y006110D01*
X004160Y005860D02*
X004160Y005610D01*
X004160Y005860D02*
X003760Y005610D01*
X003760Y006110D01*
X004160Y005860D01*
X003560Y005860D01*
X003410Y006660D02*
X003910Y006660D01*
X004160Y006910D01*
X004410Y006660D01*
X004910Y006660D01*
X005160Y006910D01*
X005160Y007410D01*
X004910Y007660D01*
X004410Y007660D01*
X004160Y007410D01*
X004160Y006910D01*
X004160Y007410D02*
X003910Y007660D01*
X003410Y007660D01*
X003160Y007410D01*
X003160Y006910D01*
X003410Y006660D01*
X002970Y006770D02*
X002900Y006700D01*
X002970Y006770D02*
X002970Y006910D01*
X002900Y006980D01*
X002830Y006980D01*
X002760Y006910D01*
X002760Y006770D01*
X002690Y006700D01*
X002620Y006700D01*
X002550Y006770D01*
X002550Y006910D01*
X002620Y006980D01*
X002550Y007160D02*
X002550Y007301D01*
X002550Y007230D02*
X002970Y007230D01*
X002970Y007160D02*
X002970Y007301D01*
X002900Y007467D02*
X002970Y007537D01*
X002970Y007678D01*
X002900Y007748D01*
X002760Y007748D01*
X002760Y007607D01*
X002620Y007467D02*
X002900Y007467D01*
X002620Y007467D02*
X002550Y007537D01*
X002550Y007678D01*
X002620Y007748D01*
X005300Y007731D02*
X005300Y007521D01*
X005720Y007521D01*
X005720Y007731D01*
X005650Y007801D01*
X005370Y007801D01*
X005300Y007731D01*
X005300Y007341D02*
X005720Y007341D01*
X005300Y007060D01*
X005720Y007060D01*
X005650Y006880D02*
X005510Y006880D01*
X005510Y006740D01*
X005650Y006880D02*
X005720Y006810D01*
X005720Y006670D01*
X005650Y006600D01*
X005370Y006600D01*
X005300Y006670D01*
X005300Y006810D01*
X005370Y006880D01*
X000970Y005000D02*
X000810Y004840D01*
X000863Y004787D02*
X000650Y005000D01*
X000650Y004787D02*
X000970Y004787D01*
X000917Y004632D02*
X000970Y004578D01*
X000970Y004472D01*
X000917Y004418D01*
X000703Y004632D01*
X000917Y004632D01*
X000917Y004418D02*
X000703Y004418D01*
X000650Y004472D01*
X000650Y004578D01*
X000703Y004632D01*
X000970Y004264D02*
X000970Y004050D01*
X000970Y004157D02*
X000650Y004157D01*
X000756Y004050D01*
D11*
X004710Y005860D03*
D12*
X005335Y005860D03*
X002985Y005860D03*
D13*
X007189Y004739D03*
X007731Y004739D03*
D14*
X007460Y004891D03*
D15*
X004160Y005010D03*
D16*
X005885Y004760D03*
X002435Y004760D03*
D17*
X003660Y004760D03*
X004660Y004760D03*
M02*
