G75*
%MOIN*%
%OFA0B0*%
%FSLAX24Y24*%
%IPPOS*%
%LPD*%
%AMOC8*
5,1,8,0,0,1.08239X$1,22.5*
%
%ADD10C,0.0792*%
%ADD11R,0.0720X0.0720*%
%ADD12OC8,0.0720*%
%ADD13C,0.0720*%
%ADD14R,0.0591X0.0591*%
%ADD15R,0.0433X0.0394*%
%ADD16C,0.0160*%
%ADD17C,0.0270*%
D10*
X002160Y005860D03*
X006160Y005860D03*
D11*
X003160Y001160D03*
X004160Y001160D03*
X005160Y001160D03*
X003660Y007160D03*
D12*
X004660Y007160D03*
X004160Y002160D03*
X005160Y002160D03*
X003160Y002160D03*
D13*
X003160Y003872D02*
X003160Y004448D01*
X004160Y004448D02*
X004160Y003872D01*
X005160Y003872D02*
X005160Y004448D01*
D14*
X007460Y004271D03*
X007460Y005649D03*
D15*
X007460Y003495D03*
X007460Y002825D03*
X001560Y004125D03*
X001560Y004795D03*
D16*
X001560Y005160D01*
X001660Y004160D02*
X003160Y004160D01*
X003160Y005160D01*
X003660Y005660D01*
X003660Y007160D01*
X006160Y005860D02*
X007360Y005860D01*
X007460Y005760D01*
X007460Y005649D01*
X007460Y004271D02*
X007460Y003495D01*
X007460Y002825D02*
X006395Y002825D01*
X006160Y003060D01*
X004560Y003060D01*
X004160Y003460D01*
X004160Y004160D01*
X001660Y004160D02*
X001595Y004125D01*
X001560Y004125D01*
D17*
X001560Y005160D03*
M02*
